<?xml version="1.0" encoding="utf-8"?>
<!-- Generator: Adobe Illustrator 27.5.0, SVG Export Plug-In . SVG Version: 6.00 Build 0)  -->
<svg version="1.1" id="Layer_1" xmlns="http://www.w3.org/2000/svg" xmlns:xlink="http://www.w3.org/1999/xlink" x="0px" y="0px"
	 viewBox="0 0 4000 9000" style="enable-background:new 0 0 4000 9000;" xml:space="preserve">
<g>
	<g>
		<defs>
			<rect id="SVGID_1_" width="4000" height="9000"/>
		</defs>
		<clipPath id="SVGID_00000111168745409642878180000001893741990188144298_">
			<use xlink:href="#SVGID_1_"  style="overflow:visible;"/>
		</clipPath>
		
			<linearGradient id="SVGID_00000012435820025104729430000002016921970993685944_" gradientUnits="userSpaceOnUse" x1="192.5176" y1="-114.6344" x2="5108.4385" y2="12436.0703">
			<stop  offset="0" style="stop-color:#EFF6FF"/>
			<stop  offset="1" style="stop-color:#FEFEFE"/>
		</linearGradient>
		
			<rect style="clip-path:url(#SVGID_00000111168745409642878180000001893741990188144298_);fill:url(#SVGID_00000012435820025104729430000002016921970993685944_);" width="4000" height="9000"/>
	</g>
	<g>
		<defs>
			<path id="SVGID_00000090993466214846086620000001156538203417066412_" d="M4000,5568.668v-117.878
				c-18.782-195.14-18.056-383.246,0-569.525V4765.86C3964.774,5027.172,3962.528,5289.898,4000,5568.668 M4000,5843.234v-60.47
				c-103.373-475.894-93.731-895.601,0-1326.871v-60.138C3889.699,4866.487,3877.382,5319.976,4000,5843.234z M4000,6019.863
				v-47.686c-190.522-667.053-167.474-1210.561,0-1802.111v-47.755C3816.197,4746.528,3789.62,5312.916,4000,6019.863z
				 M4000,6157.073v-40.805c-279.432-831.846-240.236-1458.209,0-2189.065v-41.836
				C3743.753,4646.077,3700.579,5289.074,4000,6157.073z M4000,6272.875v-37.276c-369.445-983.483-312.473-1666.43,0-2529.512
				v-37.905C3671.888,4559.853,3610.276,5255.105,4000,6272.875z M4000,6373.787v-34.329
				c-460.307-1127.498-384.377-1847.177,0-2841.141v-35.986C3600.07,4484.671,3519.382,5213.236,4000,6373.787z M4000,6465.094
				v-32.636c-551.793-1267.091-456.544-2006.776,0-3133.939v-34.564C3527.984,4419.823,3427.632,5165.45,4000,6465.094z
				 M4000,6548.452v-30.907c-643.658-1403.986-529.228-2148.958,0-3413.614v-33.555
				C3455.499,4364.039,3335.995,5112.696,4000,6548.452z M4000,6626.268v-30.013c-735.364-1538.947-602.619-2275.908,0-3683.631
				v-32.806C3382.172,4317.16,3244.147,5055.66,4000,6626.268z M4000,6699.634v-29.245c-826.928-1673.02-676.94-2389.773,0-3946.835
				v-32.541C3307.647,4278.892,3152.39,4994.779,4000,6699.634z M4000,6769.471v-28.619
				c-918.173-1806.936-752.666-2491.621,0-4205.27v-32.125C3232.036,4248.563,3061.218,4930.77,4000,6769.471z M4000,6836.506
				v-28.094c-1008.762-1940.88-829.842-2582.634,0-4460.089v-32.016C3154.701,4226.423,2970.621,4863.685,4000,6836.506z
				 M4000,6901.345v-27.646c-1098.588-2075.414-908.881-2663.386,0-4712.402v-31.893
				C3075.619,4211.98,2880.901,4793.912,4000,6901.345z M4000,6964.513v-27.306c-1187.444-2210.733-989.924-2734.698,0-4962.906
				v-31.843C2994.605,4204.923,2792.251,4721.726,4000,6964.513z M4000,7026.447v-27.041
				c-1273.985-2344.974-1073.45-2796.612-2.883-5205.595l2.883-6.493v-32.262c-2.034,4.61-3.861,9.096-5.911,13.711l-8.803,19.802
				C2909.372,4209.6,2710.535,4657.858,4000,7026.447z M4000,7087.554v-26.962c-664.921-1213.486-956.863-1921.958-946.602-2632.256
				c10.289-712.599,324.695-1428.621,871.658-2659.411c26.78-60.266,51.418-119.353,74.944-177.808v-34.519
				c-26.814,67.848-55.519,136.774-86.77,207.086c-547.639,1232.321-862.428,1949.234-872.759,2664.431
				c-10.337,715.306,283.888,1427.47,954.284,2649.873L4000,7087.554z M4000,7148.183v-26.923l-42.693-77.821
				c-669.299-1220.395-971.047-1925.202-968.742-2631.893c2.31-706.774,308.696-1416.935,855.642-2647.699
				c60.271-135.635,111.645-266.413,155.794-392.985v-39.218c-46.554,136.987-101.945,279.17-167.622,426.968
				c-547.653,1232.34-854.435,1943.481-856.742,2652.871c-2.324,709.479,299.912,1415.789,970.303,2638.167L4000,7148.183z
				 M4000,7208.874v-26.923l-39.897-72.742l-51.622-94.101c-669.315-1220.425-979.07-1919.458-984.753-2620.344
				c-5.688-700.958,292.685-1405.265,839.623-2635.991c101.881-229.263,179.498-445.39,236.649-648.945v-49.996
				c-57.98,216.529-139.026,447.401-248.48,693.7c-547.667,1232.388-846.448,1937.732-840.732,2641.33
				c5.71,703.64,315.954,1404.103,986.328,2626.456l51.619,94.098L4000,7208.874z M4000,7269.824v-26.987
				c-43.059-78.66-87.373-159.493-133.237-243.123l-7.104-12.949C3190.329,5766.32,2872.57,5073.07,2858.895,4377.979
				c-13.687-695.116,276.68-1393.599,823.598-2624.292C3845.715,1386.405,3946.33,1052.909,4000,750.82v-79.23
				c-49.37,321.092-152.567,679.089-329.333,1076.868c-547.683,1232.419-838.455,1931.971-824.721,2629.755
				c13.734,697.829,331.984,1392.434,1002.345,2614.759l7.104,12.949C3905.335,7096.985,3953.398,7184.649,4000,7269.824z
				 M4000,7331.148v-27.054c-60.126-110.285-123.163-225.313-189.167-345.666c-669.335-1220.473-995.098-1907.945-1016.774-2597.231
				c-21.679-689.305,260.678-1381.938,807.576-2612.588C3912.931,1048.115,3997.1,469.605,3958.083,0h-13.105
				c39.095,467.862-44.632,1044.584-355.169,1743.374c-547.697,1232.455-830.47,1926.228-808.702,2618.215
				c21.749,691.987,348.012,1380.742,1018.361,2603.048C3869.649,7092.599,3936.468,7214.556,4000,7331.148z M4000,7393.121v-27.202
				c-74.477-137.375-153.819-282.363-237.984-435.835C3092.65,5709.569,2758.861,5027.852,2729.2,4344.41
				c-29.675-683.43,244.684-1370.227,791.576-2600.875C3830.892,1045.701,3915.001,468.79,3876.13,0h-13.139
				c38.95,467.046-44.685,1042.176-354.041,1738.306c-547.697,1232.458-822.458,1920.436-792.666,2606.651
				c29.784,686.199,364.045,1369.093,1034.363,2591.336C3839.144,7097.653,3922.234,7249.536,4000,7393.121z M4000,7455.985v-27.345
				c-88.256-164.08-183.854-339.156-286.816-526.89c-669.38-1220.545-1011.167-1896.48-1048.826-2574.125
				c-37.659-677.605,228.693-1358.569,775.566-2589.168C3748.852,1043.288,3832.914,467.963,3794.188,0h-13.125
				c38.807,466.225-44.794,1039.767-352.965,1733.221c-547.717,1232.514-814.474,1914.701-776.655,2595.102
				c37.807,680.379,380.075,1357.415,1050.377,2579.631C3809.232,7103.811,3908.61,7285.846,4000,7455.985z M4000,7519.995v-27.557
				c-101.361-190.386-213.224-395.815-335.638-619.027c-669.394-1220.573-1019.188-1890.742-1064.837-2562.57
				c-45.646-671.794,212.688-1346.902,759.547-2577.463C3666.84,1040.829,3750.754,467.141,3712.167,0h-13.061
				c38.654,465.398-44.878,1037.343-351.867,1728.142c-547.736,1232.547-806.478,1908.96-760.639,2583.547
				c45.833,674.555,396.105,1345.718,1066.393,2567.931C3780.018,7111.23,3895.694,7323.695,4000,7519.995z M4000,7585.493v-27.845
				c-113.681-216.367-241.82-452.474-384.464-712.574C2946.12,5624.448,2588.3,4960.042,2534.663,4294.059
				c-53.639-665.942,196.696-1335.213,743.55-2565.76C3584.825,1038.343,3668.563,466.32,3630.108,0h-13.072
				c38.522,464.588-44.817,1034.856-350.652,1723.064c-547.748,1232.564-798.477,1903.171-744.606,2572.001
				c53.865,668.771,412.13,1334.065,1082.393,2556.217C3751.604,7120.115,3883.558,7363.326,4000,7585.493z M4000,7652.849v-28.205
				c-125.125-242.097-269.52-509.313-433.281-807.912l-29.932-54.567C2226.649,4373.49,2112.261,4164.942,3197.355,1723.226
				C3502.819,1035.862,3586.37,465.504,3548.054,0h-13.063c38.38,463.767-44.777,1032.37-349.464,1717.99
				c-1087.692,2447.572-973.061,2656.578,339.896,5050.377l29.932,54.572C3724.122,7130.675,3872.328,7405.059,4000,7652.849z
				 M4000,7722.588v-28.691c-135.537-267.671-296.188-566.5-482.104-905.502c-33.703-61.456-66.677-121.496-98.88-180.149
				c-1246.487-2270.1-1368.272-2491.889-302.519-4890.1C3420.807,1033.37,3504.207,464.666,3466.037,0h-13.08
				c38.237,462.94-44.755,1029.889-348.288,1712.911c-1068.36,2404.069-946.3,2626.361,302.98,4901.534
				c32.203,58.654,65.18,118.702,98.883,180.158C3697.724,7143.232,3862.161,7449.294,4000,7722.588z M4000,7795.248v-29.323
				c-144.747-293.177-321.645-624.265-530.929-1005.875c-59.671-108.812-112.41-204.63-163.194-296.91
				c-1188.71-2159.848-1317.399-2393.679-270.227-4750.073C3338.806,1030.889,3422.058,463.828,3384.047,0h-13.105
				c38.095,462.107-44.741,1027.397-347.126,1707.832c-1049.785,2362.289-920.791,2596.667,270.696,4761.558
				c53.91,97.953,109.999,199.851,163.194,296.868C3672.606,7158.104,3853.255,7496.511,4000,7795.248z M4000,7871.585v-29.991
				c-152.52-318.804-345.578-682.882-579.744-1109.875c-76.391-139.289-151.846-275.915-223.401-405.467
				c-1136.219-2057.247-1271.389-2302.023-242.063-4618.258C3256.799,1028.397,3339.915,462.99,3302.06,0h-13.097
				c37.93,461.269-44.769,1024.911-346.006,1702.759c-1031.922,2322.096-896.41,2567.464,242.583,4629.748
				c69.656,126.127,143.163,259.203,223.34,405.42C3648.991,7175.743,3845.852,7547.331,4000,7871.585z M4000,7952.762v-31.088
				c-158.545-344.629-367.744-742.707-628.569-1218.296c-98.129-178.932-192.059-348.197-279.854-506.424
				c-1088.516-1961.722-1229.819-2216.39-217.644-4494.038C3174.79,1025.905,3257.786,462.135,3220.098,0h-13.111
				c37.762,460.42-44.802,1022.419-344.883,1697.68C1847.323,3981.192,1988.983,4236.498,3080.262,6203.2
				c86.666,156.182,179.384,323.266,279.803,506.385C3627.331,7196.925,3840.273,7602.663,4000,7952.762z"/>
		</defs>
		<clipPath id="SVGID_00000053543106763483774950000015985977173628444600_">
			<use xlink:href="#SVGID_00000090993466214846086620000001156538203417066412_"  style="overflow:visible;"/>
		</clipPath>
		
			<linearGradient id="SVGID_00000136371764531491398910000005552336357964270493_" gradientUnits="userSpaceOnUse" x1="2004.6139" y1="-26.1247" x2="3844.8789" y2="7988.3384">
			<stop  offset="0" style="stop-color:#1FA2FF"/>
			<stop  offset="0.5" style="stop-color:#12D8FA"/>
			<stop  offset="1" style="stop-color:#A6FFCB"/>
		</linearGradient>
		
			<rect x="1847.323" style="clip-path:url(#SVGID_00000053543106763483774950000015985977173628444600_);fill:url(#SVGID_00000136371764531491398910000005552336357964270493_);" width="2152.677" height="7952.762"/>
	</g>
	<g>
		<defs>
			<path id="SVGID_00000178890846175278268620000016513881424219038906_" d="M0,4544.082v135.126
				c9.99,132.195,10.217,263.771,0,397.6v134.335C28.641,4984.284,27.725,4766.444,0,4544.082 M0,4152.756v59.673
				c92.483,419.436,97.497,801.235,0,1231.246v57.894C116.182,5027.271,109.804,4614.738,0,4152.756z M0,3873.528v46.923
				c174.16,603.684,186.27,1098.575,0,1713.397v44.445C204.999,5026.901,191.29,4513.114,0,3873.528z M0,3631.437v40.567
				c126.03,378.137,194.911,706.087,199.635,1033.278C204.533,5044.345,140.521,5383.029,0,5776.386v38.083
				c149.541-409.275,217.632-758.986,212.57-1109.409C207.667,4365.854,134.237,4026.221,0,3631.437z M0,3408.602v37.536
				c171.609,470.932,263.217,857.154,264.469,1242.348c1.226,376.243-83.75,751.965-264.469,1205.233v34.689
				c189.6-468.268,278.664-853.665,277.404-1239.987C276.113,4292.483,179.934,3895.948,0,3408.602z M0,3197.373v35.681
				c218.596,564.882,332.842,1002.432,329.299,1438.647C325.997,5079.253,219.837,5486.215,0,5995.396v32.527
				c228.62-523.655,338.868-939.348,342.248-1356.122C345.872,4225.683,227.03,3778.799,0,3197.373z M0,2993.625v34.5
				c266.941,661.326,403.632,1144.9,394.139,1626.795C385.59,5089.659,258.074,5523.684,0,6086.42v30.887
				C266.695,5540.5,398.363,5098.448,407.087,4655.154C416.756,4163.948,275.518,3671.853,0,2993.625z M0,2795.095v33.62
				c316.641,760.95,475.433,1286.181,458.975,1809.423C444.554,5096.839,295.403,5554.812,0,6169.522v29.843
				c303.972-628.651,457.254-1094.03,471.929-1560.844C488.669,4106.47,325.327,3573.311,0,2795.095z M0,2600.223v32.994
				c367.735,864.08,548.189,1427.282,523.842,1988.131C502.998,5101.536,332.012,5580.885,0,6246.838v28.938
				C340.404,5596.13,515.578,5109.816,536.752,4621.9C561.462,4052.549,376.519,3481.962,0,2600.223z M0,2408.145v32.508
				c420.201,970.76,621.75,1568.664,588.67,2163.913C560.909,5104.17,367.797,5602.902,0,6319.589v28.306
				C376.105,5617.55,573.419,5112.3,601.593,4605.267C635.132,4001.854,429.093,3396.966,0,2408.145z M0,2218.203v32.178
				c474.044,1080.91,696.096,1710.64,653.512,2337.4C618.364,5105.081,402.838,5621.456,0,6388.803v27.836
				c411.066-781.015,630.799-1303.521,666.441-1828.006C709.567,3953.978,483.062,3317.656,0,2218.203z M0,2030.081v31.893
				C529.351,3256.493,771.188,3915.364,718.373,4571C675.406,5104.502,437.19,5637.067,0,6455.299v27.468
				C445.274,5650.89,687.726,5112.548,731.249,4572C784.687,3908.65,538.431,3243.452,0,2030.081z M0,1835.186v34.642
				c17.748,43.012,36.134,86.376,55.673,130.338C1056.45,4252.131,1036.894,4604.565,0,6519.68v27.164
				C1050.799,4608.407,1074.464,4260.839,67.504,1994.93C43.484,1940.872,21.324,1887.797,0,1835.186z M0,1616.193v39.604
				c39.461,109.793,84.797,222.854,136.539,339.29C1152.917,4282.175,1089.218,4589.916,0,6582.466v26.967
				c1102.801-2016.098,1170.827-2318.799,148.365-4619.582C91.161,1861.129,42.213,1736.764,0,1616.193z M0,1354.607v46.85
				c54.251,185.927,125.529,381.844,217.392,588.55C1248.819,4310.992,1139.437,4572.785,0,6644.064v26.895
				c1152.746-2095.074,1266.646-2351.698,229.218-4686.187C130.455,1762.533,55.394,1552.726,0,1354.607z M0,991.056v72.385
				c54.343,280.544,149.65,587.103,298.242,921.482C1327.568,4301.169,1192.4,4545.945,56.179,6603.198L0,6704.933v26.753
				l67.493-122.242C1206.489,4547.166,1342.003,4301.8,310.076,1979.699C149.441,1618.227,51.237,1289.396,0,991.056z M2.984,0H0
				v14.471C0.947,9.605,2.011,4.839,2.984,0z M84.853,0H71.482C-30.206,507.874,15.279,1161.154,379.1,1979.855
				c1012.176,2277.648,870.873,2532.314-217.644,4494.044C109.644,6567.271,55.687,6664.497,0,6765.294v26.753
				c60.313-109.234,117.757-212.766,172.777-311.901C1264.05,4513.435,1405.711,4258.138,390.934,1974.626
				C27.783,1157.455-17.039,505.985,84.853,0z"/>
		</defs>
		<clipPath id="SVGID_00000075137896314450420250000015279016994790855847_">
			<use xlink:href="#SVGID_00000178890846175278268620000016513881424219038906_"  style="overflow:visible;"/>
		</clipPath>
		<defs>
			<filter id="Adobe_OpacityMaskFilter" filterUnits="userSpaceOnUse" x="-30.206" y="0" width="1435.916" height="6792.047">
				<feColorMatrix  type="matrix" values="1 0 0 0 0  0 1 0 0 0  0 0 1 0 0  0 0 0 1 0"/>
			</filter>
		</defs>
		
			<mask maskUnits="userSpaceOnUse" x="-30.206" y="0" width="1435.916" height="6792.047" id="SVGID_00000065072655064904405340000012260608755113550213_">
			<g style="filter:url(#Adobe_OpacityMaskFilter);">
				
					<linearGradient id="SVGID_00000054949266281795604360000001972735323008002220_" gradientUnits="userSpaceOnUse" x1="-346.9219" y1="1385.7329" x2="-743.3082" y2="8278.5527" gradientTransform="matrix(1 0 0 1 1107.7935 -1853.276)">
					<stop  offset="0" style="stop-color:#FFFFFF"/>
					<stop  offset="1" style="stop-color:#000000"/>
				</linearGradient>
				
					<rect style="clip-path:url(#SVGID_00000075137896314450420250000015279016994790855847_);fill:url(#SVGID_00000054949266281795604360000001972735323008002220_);" width="1077.378" height="6792.047"/>
			</g>
		</mask>
		
			<linearGradient id="SVGID_00000142160615866101172860000014631376459017629073_" gradientUnits="userSpaceOnUse" x1="136.4622" y1="-75.7492" x2="1223.7762" y2="6771.6528">
			<stop  offset="0" style="stop-color:#1FA2FF"/>
			<stop  offset="0.5" style="stop-color:#12D8FA"/>
			<stop  offset="1" style="stop-color:#A6FFCB"/>
		</linearGradient>
		
			<rect x="-30.206" style="clip-path:url(#SVGID_00000075137896314450420250000015279016994790855847_);mask:url(#SVGID_00000065072655064904405340000012260608755113550213_);fill:url(#SVGID_00000142160615866101172860000014631376459017629073_);" width="1435.916" height="6792.047"/>
	</g>
	<g>
		<defs>
			<path id="SVGID_00000174579668069242087610000007233527914095873202_" d="M0,7926.747v103.635
				c19.844,188.408,19.662,385.593,0,600.77v122.289C36.737,8448.975,37.262,8181.254,0,7926.747 M426.551,9000h13.513
				C900.78,7485.126,925.638,7006.48,0,5627.275v23.218C912.15,7013.856,884.962,7493.184,426.551,9000z M393.25,9000h13.494
				C836.904,7553.444,845.629,7048.325,0,5764.865v23.699C831.959,7056.161,820.997,7562.051,393.25,9000z M359.522,9000h13.527
				C772.593,7622.507,767.891,7095.072,0,5904.357v23.976C754.487,7103.682,756.636,7631.405,359.522,9000z M325.243,9000h13.488
				C707.531,7692.78,692.598,7147.236,0,6045.713v24.532C679.233,7156.662,691.534,7702.206,325.243,9000z M290.517,9000H304
				C642.158,7764.207,619.459,7205.203,0,6189.785v25.177C606.167,7215.581,626.083,7774.183,290.517,9000z M255.336,9000h13.39
				c162.968-616.177,231.799-1065.235,178.747-1490.437C400.452,7132.653,257.691,6774.963,0,6336.801v25.585
				c249.757,427.985,388.568,779.338,434.658,1148.812C487.543,7935.114,418.528,8383.672,255.336,9000z M219.499,9000h13.365
				c152.707-599.278,212.185-1041.614,154.523-1460.989C340.379,7197.126,215.523,6870.849,0,6487.672v26.448
				c207.815,373.111,328.618,692.566,374.555,1026.688C432.052,7958.939,372.392,8400.73,219.499,9000z M183.074,9000h13.329
				c142.479-582.605,192.916-1018.116,130.865-1431.529c-45.621-304-152.028-595.778-327.268-925.058v27.694
				c167.748,319.187,270.095,603.581,314.476,899.294C376.34,7982.59,325.724,8417.492,183.074,9000z M146.03,9000h13.292
				c132.324-566.231,174.031-994.761,107.834-1402.078C224.469,7335.255,136.928,7081.592,0,6805.688v29.239
				c129.745,265.732,213.154,511.276,254.403,765.076C320.399,8006.083,278.521,8433.959,146.03,9000z M108.351,9000h13.259
				c122.283-550.162,155.562-971.576,85.451-1372.638C169.1,7410.166,100.794,7199.054,0,6976.8v31.683
				c93.896,211.679,158.037,413.689,194.297,621.128C264.189,8029.469,230.76,8450.168,108.351,9000z M70.019,9000h13.214
				c112.354-534.344,137.501-948.492,63.719-1343.187C115.844,7490.406,67.113,7327.522,0,7160.621v35.201
				c60.637,155.582,105.172,307.976,134.223,463.395C207.785,8052.688,182.49,8466.063,70.019,9000z M30.982,9000h13.195
				c102.568-518.809,119.886-925.555,42.663-1313.721C65.308,7578.04,36.427,7471.261,0,7363.955v41.235
				c30.521,94.352,55.206,188.424,74.142,283.625C151.123,8075.764,133.645,8481.697,30.982,9000z M0,9000h4.358
				c92.919-503.499,102.78-902.775,22.364-1284.278c-7.993-37.927-16.938-75.67-26.722-113.324v53.376
				c4.962,20.838,9.658,41.707,14.072,62.638C91.628,8086.357,84.775,8471.274,0,8951.417V9000z"/>
		</defs>
		<clipPath id="SVGID_00000042001267202158446240000013448222538899846032_">
			<use xlink:href="#SVGID_00000174579668069242087610000007233527914095873202_"  style="overflow:visible;"/>
		</clipPath>
		
			<linearGradient id="SVGID_00000011751513085714786460000016620683581871817145_" gradientUnits="userSpaceOnUse" x1="76.5409" y1="5582.6138" x2="834.985" y2="8981.4209">
			<stop  offset="0" style="stop-color:#1FA2FF"/>
			<stop  offset="0.5" style="stop-color:#12D8FA"/>
			<stop  offset="1" style="stop-color:#A6FFCB"/>
		</linearGradient>
		
			<rect y="5627.275" style="clip-path:url(#SVGID_00000042001267202158446240000013448222538899846032_);fill:url(#SVGID_00000011751513085714786460000016620683581871817145_);" width="925.638" height="3372.725"/>
	</g>
	<g>
		<defs>
			<path id="SVGID_00000034787872284636817590000015370707618619103116_" d="M4000,1306.114V841.638
				C3987.959,986.134,3986.998,1140.732,4000,1306.114 M4000,1826.978v-60.54c-115.087-536.492-93.212-978.954,0-1338.487v-49.89
				C3892.373,760.168,3864.503,1238.294,4000,1826.978z M4000,2129.738v-45.671c-245.6-827.725-179.378-1454.147,0-1913.701V135.45
				C3807.598,607.615,3732.724,1259.269,4000,2129.738z M4000,2372.321v-38.704C3620.816,1267.924,3740.56,511.6,3991.116,0h-14.55
				C3723.842,519.574,3605.825,1288.38,4000,2372.321z M4000,2586.017v-35.799l-27.948-72.075
				C3528.657,1335.308,3646.89,534.039,3907.294,0h-14.524c-259.84,536.688-376.217,1339.868,67.217,2482.801L4000,2586.017z
				 M4000,2796.601v-35.947c-35.061-90.823-71.382-184.499-108.949-281.323C3447.229,1335.381,3564.408,533.855,3823.471,0h-14.519
				c-258.496,536.509-373.828,1339.946,70.03,2483.988C3920.891,2592.004,3961.223,2696.042,4000,2796.601z M4000,3008.174v-36.198
				c-57.064-148.868-117.771-305.4-182.122-471.251l-7.836-20.207C3365.787,1335.459,3481.91,533.665,3739.621,0h-14.485
				c-257.16,536.325-371.456,1340.024,72.84,2485.176l7.836,20.21C3874.739,2683.04,3939.466,2849.947,4000,3008.174z
				 M4000,3220.993v-36.561c-72.594-191.539-151.975-396.12-237.694-616.99l-33.273-85.744
				C3284.351,1335.526,3399.404,533.486,3655.751,0h-14.432c-255.819,536.14-369.073,1340.091,75.648,2486.357l33.276,85.742
				C3840.739,2805.29,3924.201,3020.377,4000,3220.993z M4000,3436.103v-37.115c-87.147-234.031-185.566-487.577-294.124-767.102
				l-57.849-149.002C3202.906,1335.604,3316.897,533.291,3571.896,0h-14.435c-254.467,535.956-366.66,1340.164,78.5,2487.542
				l57.846,149.005C3807.408,2929.043,3909.987,3193.196,4000,3436.103z M4000,3654.865v-38.112
				c-100.277-276.658-218.283-580.325-351.37-922.638c-26.604-68.44-53.826-138.439-81.604-210.042
				C3121.472,1335.677,3234.383,533.095,3488.02,0h-14.402c-253.11,535.766-364.246,1340.242,81.339,2488.729
				c27.781,71.603,55,141.602,81.604,210.042C3775.062,3054.994,3897.256,3369.367,4000,3654.865z M4000,3879.406v-39.54
				c-111.421-320.167-249.631-675.339-409.381-1085.632c-33.916-87.114-68.812-176.724-104.602-268.981
				C3040.03,1335.738,3151.859,532.905,3404.128,0h-14.371c-251.755,535.582-361.821,1340.314,84.194,2489.911
				c35.79,92.26,70.686,181.868,104.602,268.981C3744.15,3184.206,3886.69,3550.313,4000,3879.406z M4000,4113.952v-42.383
				c-119.629-365.719-278.96-774.321-468.105-1259.255c-41.855-107.312-85.157-218.317-126.887-325.872
				C2958.594,1335.811,3069.325,532.715,3320.23,0h-14.34c-250.403,535.392-359.396,1340.382,87.052,2491.098
				c45.504,117.291,86.879,223.362,126.887,325.925C3715.573,3318.863,3879.281,3738.729,4000,4113.952z M4000,4364.815v-46.429
				c-123.314-415.653-304.947-880.571-527.496-1449.898c-48.337-123.661-98.564-252.132-148.502-380.861
				C2877.152,1335.884,2986.788,532.52,3236.319,0h-14.312c-249.039,535.207-356.954,1340.46,89.927,2492.286
				c52.569,135.495,101.476,260.611,148.502,380.914C3690.533,3461.825,3876.921,3938.674,4000,4364.815z M4000,4647.902v-55.584
				c-119.182-474.223-325.344-1000.505-587.516-1669.528c-54.69-139.557-111.807-285.302-169.491-433.983
				C2795.707,1335.951,2904.262,532.324,3152.415,0h-14.318c-247.662,535.012-354.488,1340.521,92.829,2493.465
				c59.716,153.922,115.793,296.999,169.489,434.036C3672.114,3620.832,3883.491,4160.489,4000,4647.902z M4000,5012.497v-82.316
				c-97.824-554.322-333.088-1153.203-648.136-1954.883c-60.872-154.894-124.708-317.329-189.871-485.303
				C2714.271,1336.012,2821.714,532.123,3068.49,0h-14.284c-246.29,534.816-352.026,1340.594,95.721,2494.652
				c66.741,172.034,129.773,332.42,189.871,485.356C3669.734,3819.573,3911.965,4436.231,4000,5012.497z M3327.011,9000h14.15
				c151.5-339.718,370.118-733.08,658.839-1214.612v-25.191C3704.057,8253.038,3480.813,8654.103,3327.011,9000z M3284.485,9000
				h14.214c161.342-352.646,394.153-763.875,701.301-1272.151v-25.021C3685.647,8222.419,3448.129,8641.308,3284.485,9000z
				 M3242.428,9000h14.265c171.221-365.227,418.061-794.011,743.307-1329.005v-24.931
				C3667.496,8192.479,3415.959,8628.837,3242.428,9000z M3200.741,9000h14.329c181.11-377.469,441.902-823.632,784.93-1385.346
				v-24.847C3649.686,8163.039,3384.164,8616.712,3200.741,9000z M3159.417,9000h14.396
				c191.028-389.438,465.677-852.824,826.188-1441.352v-24.797l-5.721,9.336C3629.264,8138.913,3351.774,8606.887,3159.417,9000z
				 M3118.533,9000h14.446c192.947-385.193,466.423-843.417,822.223-1424.104l44.797-73.133v-24.8l-55.852,91.187
				C3586.487,8152.878,3311.891,8613.074,3118.533,9000z M3077.986,9000h14.519c193.676-379.025,464.126-829.468,812.571-1398.147
				c32.332-52.768,63.954-104.435,94.925-155.146v-24.853c-34.488,56.492-69.787,114.185-105.979,173.251
				C3543.716,8166.833,3272.109,8619.263,3077.986,9000z M3037.815,9000h14.566c194.174-372.849,461.483-815.517,802.567-1372.185
				c50.035-81.66,98.333-160.736,145.052-237.585v-24.939c-50.125,82.512-102.113,167.662-156.107,255.778
				C3500.93,8180.807,3232.472,8625.445,3037.815,9000z M2998.024,9000h14.636c194.433-366.696,458.391-801.503,792.152-1346.226
				c68.222-111.34,133.265-218.088,195.188-320.698v-25.096c-65.233,108.237-133.922,221.021-206.242,339.044
				C3458.116,8194.825,3192.977,8631.616,2998.024,9000z M2958.555,9000h14.706c194.458-360.533,454.98-787.481,781.424-1320.264
				c87.027-142.038,168.723-276.619,245.315-404.813v-25.25c-79.743,133.693-165.15,274.442-256.37,423.316
				C3415.306,8208.839,3153.564,8637.79,2958.555,9000z M2919.376,9000h14.896c192.623-351.51,446.968-766.633,762.567-1281.719
				l7.719-12.591c106.482-173.788,204.846-336.603,295.443-490.231v-25.495c-93.606,159.085-195.654,328.079-306.497,508.98
				l-7.719,12.591C3368.369,8229.585,3112.72,8646.822,2919.376,9000z M2880.661,9000h14.902
				c182.024-327.093,416.469-709.672,702.784-1176.835l56.083-91.514c126.703-206.785,241.725-398.285,345.57-577.319v-25.856
				c-106.7,184.468-225.365,382.21-356.625,596.429l-56.083,91.513C3299.169,8286.537,3063.447,8671.203,2880.661,9000z
				 M2842.242,9000h14.946c171.042-302.936,386.123-653.722,644.753-1075.44c33.39-54.446,67.53-110.094,102.359-166.952
				c147.823-241.251,279.471-462.004,395.7-666.565v-26.274c-118.897,209.992-254.163,437.056-406.755,686.092
				c-34.829,56.857-68.965,112.505-102.356,166.952C3230.471,8342.445,3014.105,8695.341,2842.242,9000z M2804.141,9000h14.98
				c159.699-278.996,355.968-598.778,588.39-977.375c47.392-77.193,96.293-156.839,146.661-239.055
				c170.016-277.471,318.208-528.15,445.828-758.536v-26.786c-130.061,235.817-281.865,492.938-456.882,778.575
				c-50.368,82.216-99.269,161.862-146.658,239.055C3162.277,8397.342,2964.712,8719.261,2804.141,9000z M2766.32,9000h15.044
				c148.016-255.244,325.967-544.79,533.55-882.445c58.774-95.612,119.9-195.035,189.131-308.026
				c193.565-315.91,358.052-597.275,495.955-854.059v-27.493c-140.023,262.253-308.19,550.315-507.01,874.802
				c-61.83,100.917-126.829,206.639-189.134,307.989C3094.53,8451.26,2915.25,8742.971,2766.32,9000z M2728.837,9000h15.024
				c136.006-231.69,296.116-491.748,480.143-790.552c74.248-120.554,152.304-247.293,229.913-373.958
				c218.493-356.6,399.368-669.87,546.083-953.626v-28.247c-148.485,289.271-333.088,609.472-557.137,975.126
				c-83.023,135.5-158.266,257.664-229.86,373.918C3027.26,8504.248,2865.804,8766.493,2728.837,9000z M2691.591,9000h15.064
				c123.691-208.305,266.413-439.609,428.071-701.52c85.51-138.537,176.185-285.444,269.062-437.036
				c245.192-400.165,442.408-746.702,596.213-1058.376v-29.907c-155.232,317.589-355.868,671.236-607.265,1081.536
				c-96.617,157.691-185.371,301.483-269.011,437C2960.376,8556.334,2816.299,8789.854,2691.591,9000z M2654.625,9000h15.103
				c111.092-185.063,236.836-388.342,377.226-615.216c96.257-155.563,199.258-322.009,306.709-497.378
				C3628.13,7439.46,3841.15,7057.997,4000,6716.723v-31.141c-159.741,347.347-376.287,736.292-657.392,1195.078
				c-110.223,179.89-211.774,344.009-306.659,497.339C2893.903,8607.554,2766.767,8813.062,2654.625,9000z M2617.93,9000h15.139
				c98.216-161.962,207.368-337.907,327.517-531.511c106.49-171.599,221.44-356.818,342.949-555.124
				c306.506-500.244,535.316-918.873,696.465-1291.586v-33.715c-161.381,379.38-393.448,805.965-707.522,1318.555
				c-123.655,201.809-237.47,385.205-342.896,555.084C2827.801,8657.941,2717.243,8836.124,2617.93,9000z M2581.483,9000h15.192
				c85.077-138.979,178.006-288.271,278.873-450.268c115.724-185.859,241.711-388.199,377.857-610.405
				c342.936-559.7,586.736-1018.532,746.595-1425.972v-36.466c-159.138,414.706-406.221,882.135-757.65,1455.692
				c-135.858,221.736-261.974,424.275-377.804,610.313C2762.065,8707.485,2667.713,8859.055,2581.483,9000z M2545.288,9000h15.24
				c71.706-116.104,148.748-239.429,231.215-371.401c125.035-200.091,262.301-419.76,411.535-663.315
				c385.28-628.802,643.393-1132.103,796.722-1578.95v-41.774c-151.17,455.447-412.222,968.405-807.777,1613.975
				c-148.991,243.164-286.357,462.987-411.482,663.226C2696.684,8756.277,2618.195,8881.891,2545.288,9000z M2509.341,9000h15.254
				c58.106-93.326,119.576-191.318,184.482-294.767c134.067-213.693,282.46-450.218,444.073-713.988
				c437.807-714.527,708.522-1269.231,846.85-1764.042v-50.479c-133.634,505.762-406.995,1071.851-857.907,1807.774
				c-162.208,264.743-310.23,500.683-443.967,713.845C2631.649,8804.295,2568.716,8904.617,2509.341,9000z M2473.61,9000h15.279
				c44.314-70.633,90.51-143.963,138.626-220.323c142.426-226.027,301.335-478.218,475.502-762.475
				c511.424-834.687,791.289-1454.459,896.983-2016.143v-78.419c-93.751,580.803-374.538,1217.104-908.04,2087.815
				c-174.66,285.053-333.25,536.746-475.396,762.33C2566.891,8851.621,2519.248,8927.243,2473.61,9000z M2438.104,9000h15.295
				c30.343-48.019,61.534-97.291,93.589-147.924c150.371-237.529,319.471-504.655,505.898-808.913
				c1348.194-2200.352,1061.068-2928.724,237.822-5017.025c-66.898-169.687-137.333-348.344-209.726-534.953
				C2632.828,1336.079,2739.157,531.922,2984.542,0h-14.245c-244.918,534.626-349.559,1340.667,98.621,2495.842
				c73.65,189.852,143.443,366.881,209.723,535.006c821.502,2083.879,1108.025,2810.712-236.808,5005.569
				c-186.829,304.919-355.664,571.617-505.794,808.77C2502.438,8898.268,2469.83,8949.783,2438.104,9000z M2402.806,9000h15.313
				l49.27-77.458c158.079-248.462,337.225-530.033,535.372-853.422c1337.924-2183.589,1039.322-2938.441,226.279-4993.788
				c-73.027-184.616-150.201-379.687-229.061-582.963C2551.386,1336.152,2656.592,531.726,2900.596,0h-14.225
				c-243.544,534.419-347.076,1340.728,101.537,2497.029c80.964,208.679,157.054,401.023,229.064,583.066
				c811.311,2050.966,1109.276,2804.203-225.268,4982.277c-198.976,324.746-377.597,605.488-535.215,853.227L2402.806,9000z
				 M2367.698,9000h15.335l5.691-8.893c165.298-258.423,354.041-553.497,563.909-896.025
				c1327.892-2167.218,1018.037-2947.651,214.219-4972.101c-78.165-196.886-161.029-405.576-247.883-629.43
				C2469.95,1336.208,2574.029,531.52,2816.629,0h-14.195c-242.153,534.229-344.581,1340.795,104.468,2498.211
				c86.393,222.669,169.519,432.024,247.936,629.534c802.086,2020.093,1111.288,2798.839-213.263,4960.59
				c-210.578,343.69-398.854,638.032-563.75,895.83L2367.698,9000z M2332.743,9000h15.393
				c163.186-253.752,348.529-543.024,554.366-878.962c1318.165-2151.325,997.221-2956.418,201.744-4951.871
				c-83.822-210.288-172.953-433.857-266.287-674.429C2388.502,1336.275,2491.456,531.324,2732.656,0h-14.161
				c-240.767,534.028-342.078,1340.868,107.398,2499.396c92.952,239.58,182.3,463.714,266.341,674.532
				c793.761,1991.162,1114.02,2794.52-200.786,4940.364C2683.78,8453.219,2496.97,8744.646,2332.743,9000z M2297.995,9000h15.405
				c159.822-247.338,340.075-528.371,538.975-853c1308.705-2135.892,976.855-2964.799,188.849-4933.108
				c-89.521-223.617-184.943-461.956-284.265-717.966C2307.066,1336.336,2408.894,531.117,2648.697,0h-14.161
				c-239.37,533.827-339.563,1340.929,110.357,2500.583c99.654,256.853,194.933,494.844,284.315,718.12
				c786.302,1964.063,1117.439,2791.179-187.885,4921.551C2640.341,8468.269,2458.733,8751.282,2297.995,9000z M2263.4,9000h15.418
				c156.229-240.726,331.247-513.392,523.428-827.043c1299.488-2120.854,956.888-2972.792,175.562-4915.665
				c-94.924-236.043-196.342-488.223-301.857-760.184C2225.624,1336.398,2326.301,530.911,2564.698,0h-14.128
				c-237.979,533.637-337.032,1340.996,113.313,2501.765c105.809,272.716,207.105,524.583,301.91,760.341
				c779.639,1938.684,1121.499,2788.776-174.601,4904.104C2597.019,8483.119,2420.607,8757.827,2263.4,9000z M2480.695,0
				c-236.993,530.709-336.513,1336.459,114.248,2498.292c111.525,287.47,218.839,553.037,319.075,801.121
				c775.417,1919.073,1128.634,2793.26-161.898,4899.506c-185.622,302.949-355.306,567.147-507.717,801.081h-15.472
				c153.629-235.725,324.849-502.175,512.134-807.828c1287.14-2100.706,934.681-2973.013,160.94-4887.945
				c-100.135-247.824-207.338-513.126-319.128-801.274C2132.088,1341.052,2230.015,533.425,2466.589,0H2480.695z"/>
		</defs>
		<clipPath id="SVGID_00000181050229439983955250000015461929443282567594_">
			<use xlink:href="#SVGID_00000034787872284636817590000015370707618619103116_"  style="overflow:visible;"/>
		</clipPath>
		
			<linearGradient id="SVGID_00000094616189685883623270000011010675566956432569_" gradientUnits="userSpaceOnUse" x1="2360.6377" y1="-98.7814" x2="4147.3506" y2="8970.9609">
			<stop  offset="0" style="stop-color:#1FA2FF"/>
			<stop  offset="0.5" style="stop-color:#12D8FA"/>
			<stop  offset="1" style="stop-color:#A6FFCB"/>
		</linearGradient>
		
			<rect x="2132.088" style="clip-path:url(#SVGID_00000181050229439983955250000015461929443282567594_);fill:url(#SVGID_00000094616189685883623270000011010675566956432569_);" width="2268.993" height="9000"/>
	</g>
</g>
</svg>
